PathFileType	4	(X/Y/Z)	C:\Users\italobelli\Desktop\GitHub\PTbot_officialCBL\Personal_Results\ABD01_noisy1.trc
DataRate	CameraRate	NumFrames	NumMarkers	Units	OrigDataRate	OrigDataStartFrame	OrigNumFrames
104.666667	104.666667	38	9	m	104.666667	138	1100
Frame#	Time		gu		centelbow		EpL		centpxt8		centijc7		ij		ts		aa		ai
			X1	Y1	Z1	X2	Y2	Z2	X3	Y3	Z3	X4	Y4	Z4	X5	Y5	Z5	X6	Y6	Z6	X7	Y7	Z7	X8	Y8	Z8	X9	Y9	Z9

138	1.3089	-0.073274	-0.020472	0.16534	-0.1132	-0.26091	0.20074	-0.092903	-0.25645	0.22537	-0.046816	-0.15316	-0.008669	-0.046816	0.031938	-0.008669	0	0	0	-0.13594	0.030868	0.061268	-0.09744	0.01815	0.17343	-0.16002	-0.080053	0.062498
139	1.3185	-0.073276	-0.020469	0.16533	-0.11313	-0.26092	0.20098	-0.09283	-0.25645	0.2256	-0.046816	-0.15316	-0.008669	-0.046816	0.031938	-0.008669	0	0	0	-0.13593	0.030866	0.061259	-0.097438	0.018147	0.17342	-0.16001	-0.080056	0.062487
140	1.328	-0.073278	-0.020467	0.16533	-0.11306	-0.26093	0.2012	-0.09276	-0.25646	0.22583	-0.046816	-0.15316	-0.008669	-0.046816	0.031938	-0.008669	0	0	0	-0.13593	0.030864	0.061249	-0.097436	0.018144	0.17341	-0.16001	-0.080059	0.062475
141	1.3376	-0.07328	-0.020466	0.16533	-0.11299	-0.26094	0.20143	-0.092691	-0.25647	0.22605	-0.046816	-0.15316	-0.008669	-0.046816	0.031938	-0.008669	0	0	0	-0.13593	0.030862	0.06124	-0.097436	0.01814	0.1734	-0.16	-0.080062	0.062463
142	1.3471	-0.073283	-0.020465	0.16533	-0.11292	-0.26094	0.20164	-0.092624	-0.25648	0.22627	-0.046816	-0.15316	-0.008669	-0.046816	0.031938	-0.008669	0	0	0	-0.13593	0.03086	0.06123	-0.097435	0.018136	0.17339	-0.16	-0.080065	0.06245
143	1.3567	-0.073286	-0.020464	0.16533	-0.11286	-0.26095	0.20185	-0.09256	-0.25649	0.22648	-0.046816	-0.15316	-0.008669	-0.046816	0.031938	-0.008669	0	0	0	-0.13593	0.030858	0.06122	-0.097436	0.018132	0.17338	-0.15999	-0.080067	0.062436
144	1.3662	-0.07329	-0.020464	0.16532	-0.11279	-0.26096	0.20206	-0.092498	-0.2565	0.22669	-0.046816	-0.15316	-0.008669	-0.046816	0.031938	-0.008669	0	0	0	-0.13593	0.030856	0.06121	-0.097437	0.018127	0.17337	-0.15999	-0.08007	0.062423
145	1.3758	-0.073294	-0.020465	0.16532	-0.11273	-0.26097	0.20225	-0.092438	-0.25651	0.22688	-0.046816	-0.15316	-0.008669	-0.046816	0.031938	-0.008669	0	0	0	-0.13593	0.030854	0.0612	-0.097438	0.018123	0.17336	-0.15999	-0.080073	0.062408
146	1.3854	-0.073299	-0.020465	0.16532	-0.11268	-0.26098	0.20244	-0.092381	-0.25652	0.22707	-0.046816	-0.15316	-0.008669	-0.046816	0.031938	-0.008669	0	0	0	-0.13593	0.030852	0.061189	-0.097441	0.018118	0.17335	-0.15999	-0.080075	0.062393
147	1.3949	-0.073304	-0.020467	0.16531	-0.11262	-0.26099	0.20262	-0.092327	-0.25653	0.22725	-0.046816	-0.15316	-0.008669	-0.046816	0.031938	-0.008669	0	0	0	-0.13593	0.03085	0.061179	-0.097444	0.018113	0.17334	-0.15998	-0.080078	0.062378
148	1.4045	-0.073309	-0.020468	0.16531	-0.11257	-0.26101	0.20279	-0.092275	-0.25655	0.22742	-0.046816	-0.15316	-0.008669	-0.046816	0.031938	-0.008669	0	0	0	-0.13593	0.030848	0.061168	-0.097448	0.018107	0.17333	-0.15998	-0.08008	0.062363
149	1.414	-0.073316	-0.020471	0.1653	-0.11252	-0.26102	0.20296	-0.092227	-0.25656	0.22759	-0.046816	-0.15316	-0.008669	-0.046816	0.031938	-0.008669	0	0	0	-0.13593	0.030846	0.061157	-0.097452	0.018102	0.17332	-0.15998	-0.080083	0.062347
150	1.4236	-0.073322	-0.020473	0.1653	-0.11248	-0.26103	0.20311	-0.092182	-0.25657	0.22774	-0.046816	-0.15316	-0.008669	-0.046816	0.031938	-0.008669	0	0	0	-0.13593	0.030845	0.061146	-0.097457	0.018096	0.17331	-0.15998	-0.080085	0.06233
151	1.4331	-0.073329	-0.020477	0.16529	-0.11244	-0.26105	0.20325	-0.09214	-0.25659	0.22789	-0.046816	-0.15316	-0.008669	-0.046816	0.031938	-0.008669	0	0	0	-0.13593	0.030843	0.061135	-0.097463	0.018089	0.1733	-0.15998	-0.080087	0.062313
152	1.4427	-0.073337	-0.02048	0.16528	-0.1124	-0.26107	0.20339	-0.092102	-0.25661	0.22803	-0.046816	-0.15316	-0.008669	-0.046816	0.031938	-0.008669	0	0	0	-0.13594	0.030841	0.061124	-0.09747	0.018083	0.17329	-0.15999	-0.080089	0.062296
153	1.4522	-0.073345	-0.020485	0.16528	-0.11236	-0.26108	0.20352	-0.092067	-0.25662	0.22815	-0.046816	-0.15316	-0.008669	-0.046816	0.031938	-0.008669	0	0	0	-0.13594	0.03084	0.061112	-0.097478	0.018076	0.17328	-0.15999	-0.080091	0.062278
154	1.4618	-0.073354	-0.020489	0.16527	-0.11233	-0.2611	0.20363	-0.092036	-0.25664	0.22827	-0.046816	-0.15316	-0.008669	-0.046816	0.031938	-0.008669	0	0	0	-0.13594	0.030838	0.061101	-0.097486	0.018069	0.17327	-0.15999	-0.080092	0.06226
155	1.4713	-0.073363	-0.020495	0.16526	-0.11231	-0.26112	0.20374	-0.092009	-0.25666	0.22837	-0.046816	-0.15316	-0.008669	-0.046816	0.031938	-0.008669	0	0	0	-0.13595	0.030837	0.06109	-0.097495	0.018062	0.17326	-0.15999	-0.080094	0.062242
156	1.4809	-0.073373	-0.020501	0.16526	-0.11228	-0.26114	0.20383	-0.091986	-0.25668	0.22847	-0.046816	-0.15316	-0.008669	-0.046816	0.031938	-0.008669	0	0	0	-0.13595	0.030835	0.061078	-0.097505	0.018055	0.17325	-0.16	-0.080096	0.062223
157	1.4904	-0.073383	-0.020507	0.16525	-0.11226	-0.26117	0.20391	-0.091967	-0.25671	0.22855	-0.046816	-0.15316	-0.008669	-0.046816	0.031938	-0.008669	0	0	0	-0.13596	0.030834	0.061067	-0.097516	0.018047	0.17324	-0.16	-0.080097	0.062204
158	1.5	-0.073394	-0.020514	0.16524	-0.11225	-0.26119	0.20398	-0.091953	-0.25673	0.22862	-0.046816	-0.15316	-0.008669	-0.046816	0.031938	-0.008669	0	0	0	-0.13596	0.030833	0.061055	-0.097527	0.018039	0.17323	-0.16001	-0.080098	0.062185
159	1.5096	-0.073405	-0.020522	0.16523	-0.11224	-0.26122	0.20404	-0.091947	-0.25676	0.22868	-0.046816	-0.15316	-0.008669	-0.046816	0.031938	-0.008669	0	0	0	-0.13597	0.030832	0.061043	-0.09754	0.018031	0.17322	-0.16002	-0.080099	0.062165
160	1.5191	-0.073417	-0.020533	0.16522	-0.11225	-0.26125	0.2041	-0.091952	-0.25679	0.22874	-0.046816	-0.15316	-0.008669	-0.046816	0.031938	-0.008669	0	0	0	-0.13597	0.030831	0.06103	-0.097554	0.018022	0.17321	-0.16002	-0.0801	0.062143
161	1.5287	-0.073429	-0.020546	0.16521	-0.11226	-0.26129	0.20414	-0.091968	-0.25683	0.22879	-0.046816	-0.15316	-0.008669	-0.046816	0.031938	-0.008669	0	0	0	-0.13598	0.03083	0.061017	-0.097569	0.018012	0.1732	-0.16003	-0.080101	0.06212
162	1.5382	-0.073441	-0.020561	0.1652	-0.11229	-0.26133	0.20419	-0.091995	-0.25687	0.22883	-0.046816	-0.15316	-0.008669	-0.046816	0.031938	-0.008669	0	0	0	-0.13599	0.030829	0.061003	-0.097586	0.018002	0.17319	-0.16004	-0.080101	0.062096
163	1.5478	-0.073454	-0.020579	0.16519	-0.11232	-0.26138	0.20423	-0.092032	-0.25692	0.22887	-0.046816	-0.15316	-0.008669	-0.046816	0.031938	-0.008669	0	0	0	-0.13599	0.030828	0.060989	-0.097604	0.017991	0.17317	-0.16005	-0.080102	0.06207
164	1.5573	-0.073467	-0.020598	0.16517	-0.11237	-0.26143	0.20426	-0.092079	-0.25697	0.22891	-0.046816	-0.15316	-0.008669	-0.046816	0.031938	-0.008669	0	0	0	-0.136	0.030827	0.060974	-0.097624	0.017979	0.17316	-0.16007	-0.080102	0.062043
165	1.5669	-0.07348	-0.020619	0.16516	-0.11242	-0.26148	0.20429	-0.092135	-0.25703	0.22894	-0.046816	-0.15316	-0.008669	-0.046816	0.031938	-0.008669	0	0	0	-0.13601	0.030826	0.060958	-0.097644	0.017967	0.17315	-0.16008	-0.080103	0.062015
166	1.5764	-0.073494	-0.020642	0.16515	-0.11248	-0.26154	0.20431	-0.092201	-0.25709	0.22896	-0.046816	-0.15316	-0.008669	-0.046816	0.031938	-0.008669	0	0	0	-0.13602	0.030825	0.060942	-0.097666	0.017955	0.17313	-0.16009	-0.080103	0.061986
167	1.586	-0.073508	-0.020667	0.16513	-0.11255	-0.2616	0.20433	-0.092274	-0.25715	0.22898	-0.046816	-0.15316	-0.008669	-0.046816	0.031938	-0.008669	0	0	0	-0.13603	0.030824	0.060926	-0.097688	0.017942	0.17312	-0.1601	-0.080103	0.061956
168	1.5955	-0.073523	-0.020693	0.16512	-0.11263	-0.26167	0.20434	-0.092357	-0.25722	0.229	-0.046816	-0.15316	-0.008669	-0.046816	0.031938	-0.008669	0	0	0	-0.13604	0.030823	0.060909	-0.097712	0.017929	0.1731	-0.16012	-0.080103	0.061925
169	1.6051	-0.073537	-0.02072	0.1651	-0.11272	-0.26174	0.20434	-0.092446	-0.25729	0.22901	-0.046816	-0.15316	-0.008669	-0.046816	0.031938	-0.008669	0	0	0	-0.13605	0.030823	0.060891	-0.097736	0.017915	0.17309	-0.16014	-0.080103	0.061893
170	1.6146	-0.073552	-0.020749	0.16508	-0.11281	-0.26181	0.20435	-0.092544	-0.25736	0.22901	-0.046816	-0.15316	-0.008669	-0.046816	0.031938	-0.008669	0	0	0	-0.13606	0.030822	0.060873	-0.097762	0.017901	0.17307	-0.16015	-0.080103	0.06186
171	1.6242	-0.073567	-0.02078	0.16507	-0.11291	-0.26188	0.20435	-0.092648	-0.25744	0.22901	-0.046816	-0.15316	-0.008669	-0.046816	0.031938	-0.008669	0	0	0	-0.13607	0.030821	0.060855	-0.097788	0.017886	0.17306	-0.16017	-0.080103	0.061827
172	1.6338	-0.073583	-0.020811	0.16505	-0.11301	-0.26196	0.20434	-0.092758	-0.25752	0.22901	-0.046816	-0.15316	-0.008669	-0.046816	0.031938	-0.008669	0	0	0	-0.13608	0.030821	0.060837	-0.097815	0.017872	0.17304	-0.16019	-0.080103	0.061793
173	1.6433	-0.073599	-0.020844	0.16503	-0.11313	-0.26204	0.20433	-0.092875	-0.2576	0.22901	-0.046816	-0.15316	-0.008669	-0.046816	0.031938	-0.008669	0	0	0	-0.13609	0.03082	0.060818	-0.097843	0.017857	0.17303	-0.1602	-0.080102	0.061758
174	1.6529	-0.073615	-0.020878	0.16501	-0.11324	-0.26212	0.20431	-0.092998	-0.25769	0.22899	-0.046816	-0.15316	-0.008669	-0.046816	0.031938	-0.008669	0	0	0	-0.13611	0.03082	0.060799	-0.097871	0.017841	0.17301	-0.16022	-0.080102	0.061722
175	1.6624	-0.073631	-0.020912	0.165	-0.11337	-0.26221	0.2043	-0.093125	-0.25777	0.22898	-0.046816	-0.15316	-0.008669	-0.046816	0.031938	-0.008669	0	0	0	-0.13612	0.030819	0.06078	-0.0979	0.017826	0.17299	-0.16024	-0.080101	0.061687
